# xmcd
#
# Track frame offsets:
#	150
#	16470
#	34105
#	51103
#	66492
#	82076
#	95112
#	110933
#	124711
#	140608
#
# Disc length: 2151 seconds
#
# Revision: 0
# Processed by: cddbd v1.5.2PL0 Copyright (c) Steve Scherf et al.
# Submitted via: audiograbber 1.83.01
#
DISCID=9708650a
DTITLE=Hobbs, Daniel Marion - Without You
DYEAR=2006
DGENRE=Country
TTITLE0=Consider Jesus
TTITLE1=Country in Me
TTITLE2=Double Slain
TTITLE3=Nicodemus
TTITLE4=Peace of Jesus
TTITLE5=Pickin' Me Up
TTITLE6=Sleeping Beauty
TTITLE7=Stand Up
TTITLE8=Take Over Me
TTITLE9=Without You
EXTD=
EXTT0=
EXTT1=
EXTT2=
EXTT3=
EXTT4=
EXTT5=
EXTT6=
EXTT7=
EXTT8=
EXTT9=
PLAYORDER=
